<?xml version="1.0" encoding="UTF-8"?>
<svg width="14px" height="13px" viewBox="0 0 14 13" version="1.1" xmlns="http://www.w3.org/2000/svg" xmlns:xlink="http://www.w3.org/1999/xlink">
    <!-- Generator: Sketch 42 (36781) - http://www.bohemiancoding.com/sketch -->
    <title>数据整理-未选</title>
    <desc>Created with Sketch.</desc>
    <defs></defs>
    <g id="销售线索" stroke="none" stroke-width="1" fill="none" fill-rule="evenodd">
        <g transform="translate(-53.000000, -229.000000)" id="数据源" fill="#BEC2C3">
            <g transform="translate(34.000000, 228.000000)">
                <g id="数据整理" transform="translate(19.000000, 0.000000)">
                    <path d="M11.375,1 L2.625,1 L0,3.625 L0,12.8125 C0,13.054 0.196,13.25 0.4375,13.25 L13.5625,13.25 C13.804,13.25 14,13.054 14,12.8125 L14,3.625 L11.375,1 L11.375,1 Z M2.11225,2.75 L2.98725,1.875 L11.01275,1.875 L11.88775,2.75 L2.11225,2.75 L2.11225,2.75 Z M7.00014318,5 L7.00014318,5 C8.25008352,5 10.0002864,6.30348876 10,7.58950986 C10,8.14475254 9.89003961,8.8950031 9.76518876,9.58912805 L8.3013411,9.58912805 C8.38152055,8.99064573 8.44652317,8.316852 8.44652317,7.64277192 C8.30391829,7.01794492 7.48236529,6.57151721 7.00014318,6.57151721 C6.51792106,6.57151721 5.66086002,7.03569895 5.55376318,7.64277192 C5.55376318,8.31312938 5.61647497,8.98806853 5.69407722,9.58912805 L4.22478881,9.58912805 C4.10480599,8.90473918 4,8.16537011 4,7.60697752 C4,6.30377512 5.75020283,5 7.00014318,5 Z M8.00009545,11.3035365 L8.00009545,11.3035365 C8.00009545,11.3035365 8.14012313,10.7087768 8.26354221,9.87491051 L9.71536296,9.87491051 C9.56502649,10.6672553 9.4109674,11.3035365 9.4109674,11.3035365 L8.00009545,11.3035365 Z M5.98215053,11.3035365 L4.57127858,11.3035365 C4.57127858,11.3035365 4.42008304,10.6684007 4.27289648,9.87491051 L5.73044433,9.87491051 C5.84842266,10.7064859 5.98215053,11.3035365 5.98215053,11.3035365 Z" id="Combined-Shape"></path>
                </g>
            </g>
        </g>
    </g>
</svg>