<?xml version="1.0" encoding="UTF-8"?>
<svg width="81px" height="43px" viewBox="0 0 81 43" version="1.1" xmlns="http://www.w3.org/2000/svg" xmlns:xlink="http://www.w3.org/1999/xlink">
    <!-- Generator: Sketch 43.1 (39012) - http://www.bohemiancoding.com/sketch -->
    <title>Group 3</title>
    <desc>Created with Sketch.</desc>
    <defs></defs>
    <g id="本地分析引擎-仪表盘" stroke="none" stroke-width="1" fill="none" fill-rule="evenodd">
        <g id="仪表盘--不查看数据-copy-2" transform="translate(-19.000000, -5.000000)" fill-rule="nonzero">
            <g id="Group-3" transform="translate(19.000000, 5.000000)">
                <g id="Group-2">
                    <path d="M1.61140908,9.32361368 C1.15534991,1.62936938 6.82568565,2.57983485 11.7967307,4.91828165 C15.7340415,6.75886558 20.5530668,10.3796864 22.4533134,15.6298767 C22.4533134,13.2310828 20.5834708,8.59944951 16.7829776,4.9333684 C11.8119326,0.120694028 4.77341936,-1.08624625 1.96105445,1.25220054 C-1.01853216,3.69625462 0.0152019725,7.66407079 1.61140908,9.32361368 Z" id="Shape" fill="#E60012"></path>
                    <path d="M2.7059511,5.52175179 C4.49978386,12.2202704 5.57912391,11.9939691 8.83234602,16.5652554 C10.9302182,19.5071723 11.2646616,23.4146415 7.54017836,25.4362665 C8.33068093,23.0978197 8.43709473,21.42319 6.91689748,18.6321406 C4.95584303,15.0414933 0.896916377,12.0543161 2.7059511,5.52175179 Z" id="Shape" fill="#C30D23"></path>
                    <path d="M3.77008918,38.5768288 C4.56059175,41.4282252 6.20240478,41.0359696 7.70740005,37.3698885 C8.22426712,36.0875144 8.71073024,33.5378531 9.10598152,32.6326479 C9.44042492,31.8481367 10.3677452,31.5765751 10.3677452,31.5765751 C10.3677452,31.5765751 9.92688804,37.279368 8.25467106,40.5531935 C6.01998111,44.9434388 3.43564578,42.544645 3.77008918,38.5768288 Z" id="Shape" fill="#C30D23"></path>
                    <path d="M15.4452041,7.98089262 C15.3995981,7.93563236 15.3539922,7.90545885 15.3083863,7.86019859 C17.9231256,12.0995763 18.4095887,17.998497 16.4637362,20.2464232 C13.1953121,24.0181116 5.88316335,25.768175 3.14680831,29.4946032 C0.410453257,33.2210313 0.48646312,38.4863083 3.34443395,42.2730834 C3.37483789,42.2881701 3.40524184,42.3032569 3.42044381,42.3183437 C2.78196097,39.6178148 3.14680831,37.1888475 5.54871996,34.2318438 C8.71073024,30.3696349 15.0347508,29.6605574 19.2608991,25.2401387 C26.4362302,17.7721957 19.868978,11.752581 15.4452041,7.98089262 Z" id="Shape" fill="#E60012"></path>
                </g>
                <g id="Group" transform="translate(24.673114, 21.500000)" fill="#FFFFFF">
                    <g transform="translate(19.202737, 0.000000)">
                        <path d="M17.1998706,3.91389706 C17.1998706,3.54504812 17.1792225,3.29914883 17.1172782,3.15570758 C17.0140377,2.88931668 16.8282047,2.6844006 16.5597794,2.52046774 C16.2707059,2.37702649 16.0022806,2.29506006 15.7957995,2.29506006 L15.4654299,2.29506006 L15.4654299,2.29506006 L13.2147865,2.29506006 L13.2147865,2.29506006 L9.60136835,2.29506006 L9.60136835,2.29506006 L7.37137312,2.29506006 L7.37137312,2.29506006 L3.96443596,2.29506006 L3.96443596,2.29506006 L1.71379263,2.29506006 L1.71379263,2.29506006 C1.36277486,2.29506006 1.0530533,2.37702649 0.805276055,2.52046774 C0.41296208,2.76636703 0.20648104,3.11472436 0.185832936,3.56553973 L0.185832936,7.45894518 L0.722683639,7.72533608 L1.75508884,7.72533608 L2.41582817,7.45894518 L2.41582817,4.11881313 C2.41582817,3.97537188 2.45712437,3.85242224 2.53971679,3.79094741 C2.62230921,3.72947259 2.91138266,3.70898098 3.40693716,3.70898098 L13.9787664,3.70898098 C14.4330247,3.70898098 14.7220981,3.7499642 14.8046906,3.81143902 C14.887283,3.87291384 14.9285792,4.0163551 14.9285792,4.24176278 L14.9285792,7.52042 L15.4447818,8.29910109 L16.477187,8.29910109 L17.1585744,7.64336965 L17.1998706,3.91389706 Z" id="Shape"></path>
                        <path d="M0.20648104,8.07369341 C0.20648104,8.44254235 0.227129144,8.68844164 0.289073456,8.83188289 C0.392313976,9.09827379 0.578146911,9.30318987 0.846572263,9.46712273 C1.13564572,9.61056398 1.40407107,9.69253041 1.61055211,9.69253041 L1.94092177,9.69253041 L1.94092177,9.69253041 L4.170917,9.69253041 L4.170917,9.69253041 L7.7843352,9.69253041 L7.7843352,9.69253041 L10.0143304,9.69253041 L10.0143304,9.69253041 L13.4212676,9.69253041 L13.4212676,9.69253041 L15.6719109,9.69253041 L15.6719109,9.69253041 C16.0229287,9.69253041 16.3326502,9.61056398 16.5804275,9.46712273 C16.9727415,9.22122344 17.1792225,8.87286611 17.1998706,8.42205074 L17.1998706,7.33599553 L16.6010756,7.33599553 L15.5686704,7.33599553 L14.9698754,7.33599553 L14.9698754,7.88926894 C14.9698754,8.03271019 14.9285792,8.15565984 14.8459868,8.21713466 C14.7633943,8.27860948 14.4743209,8.29910109 13.9787664,8.29910109 L3.40693716,8.29910109 C2.95267887,8.29910109 2.66360541,8.25811788 2.581013,8.19664305 C2.49842058,8.13516823 2.45712437,7.99172698 2.45712437,7.76631929 L2.45712437,7.31550393 L1.85832936,7.31550393 L0.825924159,7.31550393 L0.20648104,7.31550393 L0.20648104,8.07369341 Z" id="Shape"></path>
                        <rect id="Rectangle-path" x="7.57785416" y="0.0409832153" width="2.22999523" height="13.0326625"></rect>
                    </g>
                    <g id="Shape">
                        <path d="M6.50415275,11.2498926 C7.49526174,10.758094 8.13535297,10.3687535 8.2798897,10.2253122 C8.54831505,9.97941292 8.67220367,9.63105559 8.67220367,9.15974861 L8.67220367,8.91384932 L8.67220367,8.91384932 L9.27099869,8.91384932 L9.27099869,7.66386126 L8.67220367,7.66386126 L8.67220367,7.66386126 L8.67220367,7.06960463 L8.07340866,7.06960463 L7.12359587,7.06960463 L6.52480086,7.06960463 L6.52480086,7.66386126 L2.84943835,7.66386126 L2.84943835,7.06960463 L2.25064333,7.06960463 L1.30083055,7.06960463 L0.702035535,7.06960463 L0.702035535,7.66386126 L0.123888624,7.66386126 L0.123888624,8.91384932 L0.702035535,8.91384932 C0.702035535,9.18024022 0.722683639,9.3851563 0.743331743,9.48761434 C0.846572263,9.95892131 1.17694193,10.3277702 1.79638505,10.6351444 L2.99397508,11.2498926 C2.31258765,11.6187415 0.123888624,11.8441492 0.123888624,11.8441492 L0.123888624,13.0326625 L0.722683639,13.0326625 L0.722683639,13.0326625 C1.69314453,13.0326625 3.6340663,12.7047967 4.31545373,12.3974226 C4.50128667,12.3154562 4.6458234,12.2539814 4.76971202,12.1925065 C6.40091223,12.950696 8.87868471,13.0121708 8.87868471,13.0121708 L9.47747973,13.0121708 L9.47747973,11.8441492 C9.3535911,11.8851324 7.43331743,11.7416912 6.50415275,11.2498926 L6.50415275,11.2498926 Z M6.52480086,8.97532414 C6.50415275,9.24171504 6.31831982,9.46712273 5.96730205,9.6515472 L4.72841581,10.4097367 C4.72841581,10.4097367 3.20045612,9.54908916 3.07656749,9.42613951 C2.97332697,9.32368147 2.91138266,9.15974861 2.89073456,8.99581575 L6.52480086,8.99581575 L6.52480086,8.97532414 Z"></path>
                        <path d="M3.1178637,5.02044387 L3.1178637,4.40569564 L2.51906869,4.40569564 L1.46601538,4.40569564 L0.867220367,4.40569564 L0.867220367,5.02044387 C0.867220367,5.24585155 0.743331743,5.3688012 0.474906392,5.40978442 L0.474906392,6.82370534 C0.681387431,6.80321374 3.1178637,6.76223052 3.1178637,5.02044387"></path>
                        <path d="M6.48350465,5.02044387 L6.48350465,4.40569564 L7.08229966,4.40569564 L8.13535297,4.40569564 L8.73414798,4.40569564 L8.73414798,5.02044387 C8.73414798,5.24585155 8.85803661,5.3688012 9.12646196,5.40978442 L9.12646196,6.82370534 C8.91998092,6.80321374 6.48350465,6.76223052 6.48350465,5.02044387"></path>
                        <path d="M16.2294097,4.75405297 L16.3532984,2.35653488 L16.477187,2.35653488 L17.075982,2.35653488 L17.075982,0.942613951 L16.477187,0.942613951 L12.4095105,0.942613951 L12.6779358,0.0204916076 L12.0791408,0.0204916076 L11.0054394,0.0204916076 L10.716366,0.0204916076 C10.6750698,1.27047967 9.74590508,2.43850131 9.45683162,2.60243417 L9.45683162,4.34422082 C10.5718292,3.99586349 11.3564572,3.34013204 11.9759003,2.35653488 L14.0407107,2.35653488 L13.9581183,4.69257815 C13.9168221,5.59420888 13.8342297,6.41387319 13.6896929,7.13107946 C13.6071005,7.49992839 13.50386,7.84828572 13.3593233,8.19664305 C13.111546,7.64336965 12.9257131,7.15157106 12.8018245,6.68026409 C12.7192321,6.37288997 12.5333991,5.57371728 12.2443257,4.3032376 L11.6455306,4.3032376 L10.6131254,4.3032376 L10.0143304,4.3032376 C10.3859963,5.901583 10.6337735,6.94665499 10.7783103,7.41796196 C11.0880318,8.34008431 11.5009939,9.22122344 12.0584927,10.081871 C11.6248825,10.6351444 10.6544217,11.3523506 9.93173801,11.6392331 L9.93173801,13.0531541 C9.99368233,13.0326625 11.8107155,12.6228303 13.3799714,11.4957919 C14.2471917,12.1720149 15.7132071,12.7457799 16.6630199,13.0736457 L16.6630199,11.6187415 C16.1881135,11.3933338 14.9698754,10.5531779 14.70145,10.1638374 C15.1763564,9.42613951 15.5273742,8.66795003 15.7545033,7.86877733 C16.0022806,6.92616338 16.1674654,5.88109139 16.2294097,4.75405297"></path>
                        <polygon points="9.04386954 2.31555166 8.44507453 2.31555166 5.90535774 2.31555166 5.90535774 0.0409832153 5.30656272 0.0409832153 4.27415752 0.0409832153 3.67536251 0.0409832153 3.67536251 2.31555166 0.702035535 2.31555166 0.10324052 2.31555166 0.10324052 3.72947259 0.702035535 3.72947259 3.67536251 3.72947259 3.67536251 6.7007557 4.27415752 6.7007557 5.30656272 6.7007557 5.90535774 6.7007557 5.90535774 3.72947259 7.66044658 3.72947259 8.44507453 3.72947259 8.75479609 3.72947259 9.04386954 3.72947259"></polygon>
                        <polygon points="2.27129144 0.0614748229 1.25953434 0.0614748229 0.660739327 0.0614748229 0.660739327 1.55736218 1.23888624 1.55736218 2.27129144 1.55736218 2.87008645 1.55736218 2.87008645 0.0614748229"></polygon>
                        <polygon points="8.19729728 0.0614748229 7.16489208 0.0614748229 6.58674517 0.0614748229 6.58674517 1.55736218 7.16489208 1.55736218 8.19729728 1.55736218 8.7960923 1.55736218 8.7960923 0.0614748229"></polygon>
                    </g>
                    <g transform="translate(38.818435, 0.000000)" id="Shape">
                        <path d="M6.44220844,11.229401 C7.43331743,10.7376024 8.07340866,10.3482619 8.21794538,10.2048206 C8.48637074,9.95892131 8.61025936,9.61056398 8.61025936,9.13925701 L8.61025936,8.89335771 L8.61025936,8.89335771 L9.20905437,8.89335771 L9.20905437,7.64336965 L8.61025936,7.64336965 L8.61025936,7.64336965 L8.61025936,7.04911303 L8.01146434,7.04911303 L7.06165156,7.04911303 L6.46285655,7.04911303 L6.46285655,7.64336965 L2.78749404,7.64336965 L2.78749404,7.04911303 L2.18869902,7.04911303 L1.23888624,7.04911303 L0.619443119,7.04911303 L0.619443119,7.64336965 L0.041296208,7.64336965 L0.041296208,8.89335771 L0.619443119,8.89335771 C0.619443119,9.15974861 0.640091223,9.36466469 0.660739327,9.46712273 C0.763979847,9.9384297 1.09434951,10.3072786 1.71379263,10.6146528 L2.91138266,11.229401 C2.22999523,11.5982499 0.041296208,11.8236576 0.041296208,11.8236576 L0.041296208,13.0121708 L0.640091223,13.0121708 L0.640091223,13.0121708 C1.61055211,13.0121708 3.55147388,12.6843051 4.23286132,12.376931 C4.41869425,12.2949646 4.56323098,12.2334898 4.6871196,12.1720149 C6.31831982,12.9302044 8.7960923,12.9916792 8.7960923,12.9916792 L9.39488731,12.9916792 L9.39488731,11.8236576 C9.29164679,11.8646408 7.37137312,11.7211996 6.44220844,11.229401 L6.44220844,11.229401 Z M6.44220844,8.95483254 C6.42156034,9.22122344 6.2357274,9.44663112 5.88470963,9.63105559 L4.6458234,10.3892451 C4.6458234,10.3892451 3.1178637,9.52859755 2.99397508,9.4056479 C2.89073456,9.30318987 2.82879025,9.13925701 2.80814214,8.97532414 L6.44220844,8.97532414 L6.44220844,8.95483254 Z"></path>
                        <path d="M3.03527128,4.99995226 L3.03527128,4.38520403 L2.43647627,4.38520403 L1.38342297,4.38520403 L0.784627951,4.38520403 L0.784627951,4.99995226 C0.784627951,5.22535995 0.660739327,5.34830959 0.392313976,5.38929281 L0.392313976,6.80321374 C0.619443119,6.78272213 3.03527128,6.74173891 3.03527128,4.99995226"></path>
                        <path d="M6.42156034,4.99995226 L6.42156034,4.38520403 L7.02035535,4.38520403 L8.07340866,4.38520403 L8.67220367,4.38520403 L8.67220367,4.99995226 C8.67220367,5.22535995 8.7960923,5.34830959 9.06451765,5.38929281 L9.06451765,6.80321374 C8.85803661,6.78272213 6.42156034,6.74173891 6.42156034,4.99995226"></path>
                        <path d="M16.1674654,4.73356136 L16.291354,2.33604327 L16.4152427,2.33604327 L17.0140377,2.33604327 L17.0140377,0.922122344 L16.4152427,0.922122344 L12.3475662,0.922122344 L12.6159915,0 L12.0171965,0 L10.9434951,0 L10.6544217,0 C10.6131254,1.24998807 9.68396077,2.4180097 9.39488731,2.58194256 L9.39488731,4.32372921 C10.5098849,3.97537188 11.2945129,3.31964044 11.913956,2.33604327 L13.9994145,2.33604327 L13.9168221,4.67208654 C13.8755259,5.57371728 13.7929335,6.39338158 13.6483967,7.11058785 C13.5658043,7.47943679 13.4625638,7.82779412 13.3180271,8.17615145 C13.0702498,7.62287804 12.8844169,7.13107946 12.7605283,6.65977248 C12.6779358,6.35239837 12.4921029,5.55322567 12.2030295,4.282746 L11.6042344,4.282746 L10.5718292,4.282746 L9.97303422,4.282746 C10.3447001,5.88109139 10.5924773,6.92616338 10.7370141,7.39747036 C11.0467356,8.3195927 11.4596977,9.20073183 12.0171965,10.0613793 C11.5835863,10.6146528 10.6131254,11.331859 9.89044181,11.6187415 L9.89044181,13.0326625 C9.95238612,13.0121708 11.7694193,12.6023387 13.3386752,11.4753003 C14.2058955,12.1515233 15.6719109,12.7252883 16.6217237,13.0531541 L16.6217237,11.5982499 C16.1468173,11.3728422 14.9285792,10.5326863 14.6601538,10.1433458 C15.1350602,9.4056479 15.486078,8.64745842 15.7132071,7.84828572 C15.9403363,6.90567177 16.1055211,5.86059978 16.1674654,4.73356136"></path>
                        <polygon points="8.98192523 2.29506006 8.38313022 2.29506006 5.84341343 2.29506006 5.84341343 0.0204916076 5.24461841 0.0204916076 4.21221321 0.0204916076 3.6134182 0.0204916076 3.6134182 2.29506006 0.640091223 2.29506006 0.041296208 2.29506006 0.041296208 3.70898098 0.640091223 3.70898098 3.6134182 3.70898098 3.6134182 6.7007557 4.21221321 6.7007557 5.24461841 6.7007557 5.84341343 6.7007557 5.84341343 3.70898098 7.59850226 3.70898098 8.38313022 3.70898098 8.69285178 3.70898098 8.98192523 3.70898098"></polygon>
                        <polygon points="2.20934713 0.0614748229 1.19759003 0.0614748229 0.598795015 0.0614748229 0.598795015 1.55736218 1.17694193 1.55736218 2.20934713 1.55736218 2.80814214 1.55736218 2.80814214 0.0614748229"></polygon>
                        <polygon points="8.13535297 0.0614748229 7.10294777 0.0614748229 6.52480086 0.0614748229 6.52480086 1.55736218 7.08229966 1.55736218 8.13535297 1.55736218 8.73414798 1.55736218 8.73414798 0.0614748229"></polygon>
                    </g>
                </g>
            </g>
        </g>
    </g>
</svg>