<?xml version="1.0" encoding="UTF-8"?>
<svg width="15px" height="14px" viewBox="0 0 15 14" version="1.1" xmlns="http://www.w3.org/2000/svg" xmlns:xlink="http://www.w3.org/1999/xlink">
    <!-- Generator: Sketch 46.2 (44496) - http://www.bohemiancoding.com/sketch -->
    <title>下钻</title>
    <desc>Created with Sketch.</desc>
    <defs>
        <path d="M9.97395543,4.35793872 L5.19129526,4.35793872 C4.9238926,4.35782343 4.70714871,4.14107954 4.70703343,3.87367688 L4.70703343,0.499303621 C4.70714871,0.23190096 4.9238926,0.0151570674 5.19129526,0.0150417827 L9.97395543,0.0150417827 C10.2413581,0.0151570674 10.458102,0.23190096 10.4582173,0.499303621 L10.4582173,3.87367688 C10.4585513,4.00221321 10.4076382,4.12558126 10.316749,4.21647048 C10.2258598,4.30735969 10.1024918,4.35827273 9.97395543,4.35793872 Z M5.6755571,3.38693747 L9.48555705,3.38693747 L9.48555705,0.98356546 L5.6755571,0.98356546 L5.6755571,3.38693747 Z M3.85487465,13.4331476 L0.485306407,13.4331476 C0.217903745,13.4330323 0.00115985287,13.2162885 0.00104456825,12.9488858 L0.00104456825,9.41824513 C0.00115985287,9.15084246 0.217903745,8.93409857 0.485306407,8.93398329 L3.85487465,8.93398329 C4.12227731,8.93409857 4.33902121,9.15084246 4.33913649,9.41824513 L4.33913649,12.9488858 C4.33941461,13.0774051 4.28848363,13.2007406 4.19760656,13.2916177 C4.10672949,13.3824948 3.98339394,13.4334258 3.85487465,13.4331476 L3.85487465,13.4331476 Z M0.969568245,12.464415 L3.37061281,12.464415 L3.37061281,9.90250696 L0.969568245,9.90250696 L0.969568245,12.464415 Z M9.2678273,13.4331476 L5.8974234,13.4331476 C5.63002074,13.4330323 5.41327684,13.2162885 5.41316156,12.9488858 L5.41316156,9.41824513 C5.41327684,9.15084246 5.63002074,8.93409857 5.8974234,8.93398329 L9.26699164,8.93398329 C9.5343943,8.93409857 9.7511382,9.15084246 9.75125348,9.41824513 L9.75125348,12.9488858 C9.75175443,13.077328 9.70100988,13.2006663 9.61026527,13.2915678 C9.51952067,13.3824693 9.39627022,13.4334267 9.2678273,13.4331476 L9.2678273,13.4331476 Z M6.38168524,12.464415 L8.78252089,12.464415 L8.78252089,9.90250696 L6.38168524,9.90250696 L6.38168524,12.464415 Z M14.5006964,13.4331476 L11.131337,13.4331476 C10.8639344,13.4330323 10.6471905,13.2162885 10.6470752,12.9488858 L10.6470752,9.41824513 C10.6471905,9.15084246 10.8639344,8.93409857 11.131337,8.93398329 L14.5006964,8.93398329 C14.768099,8.93409857 14.9848429,9.15084246 14.9849582,9.41824513 L14.9849582,12.9488858 C14.9852363,13.0774051 14.9343054,13.2007406 14.8434283,13.2916177 C14.7525512,13.3824948 14.6292157,13.4334258 14.5006964,13.4331476 L14.5006964,13.4331476 Z M11.6155989,12.464415 L14.0164345,12.464415 L14.0164345,9.90250696 L11.6155989,9.90250696 L11.6155989,12.464415 Z" id="path-1"></path>
    </defs>
    <g id="Page-1" stroke="none" stroke-width="1" fill="none" fill-rule="evenodd">
        <g id="一个分组方式下钻2" transform="translate(-1155.000000, -290.000000)" fill-rule="nonzero">
            <g id="Group-20" transform="translate(1136.000000, 271.000000)">
                <g id="下钻" transform="translate(19.000000, 19.000000)">
                    <g id="细分-01">
                        <g id="Shape">
                            <use fill="#979797" fill-rule="evenodd" xlink:href="#path-1"></use>
                            <path stroke="#FFFFFF" stroke-width="0.2" d="M9.97395543,4.25793872 L9.97421528,4.25793906 C10.07614,4.25820391 10.1739665,4.2178317 10.2460384,4.1457598 C10.3181102,4.0736879 10.3584825,3.97586145 10.3582173,3.87367688 L10.3582173,0.499346734 C10.3581258,0.287138872 10.1861202,0.115133262 9.97395543,0.115041783 L5.19133838,0.115041773 C4.97913052,0.115133262 4.80712491,0.287138872 4.80703343,0.499303621 L4.80703342,3.87363377 C4.80712491,4.08584163 4.97913052,4.25784724 5.19129526,4.25793872 L9.97395543,4.25793872 Z M5.6755571,3.48693747 L5.5755571,3.38693747 L5.5755571,0.98356546 L5.6755571,0.88356546 L9.48555705,0.88356546 L9.58555705,0.98356546 L9.58555705,3.38693747 L9.48555705,3.48693747 L5.6755571,3.48693747 Z M3.85487465,13.3331476 L3.85509106,13.3331479 C3.95701376,13.3333684 4.05482548,13.2929774 4.12689588,13.220907 C4.19896628,13.1488366 4.23935729,13.0510249 4.23913649,12.9488858 L4.2391365,9.41828824 C4.23904501,9.20608038 4.0670394,9.03407477 3.85487465,9.03398329 L0.485349519,9.03398328 C0.273141658,9.03407477 0.101136048,9.20608038 0.101044568,9.41824513 L0.101044559,12.9488427 C0.101136048,13.1610505 0.273141658,13.3330562 0.485306407,13.3331476 L3.85487465,13.3331476 Z M0.969568245,12.564415 L0.869568245,12.464415 L0.869568245,9.90250696 L0.969568245,9.80250696 L3.37061281,9.80250696 L3.47061281,9.90250696 L3.47061281,12.464415 L3.37061281,12.564415 L0.969568245,12.564415 Z M9.2678273,13.3331476 L9.2680446,13.3331479 C9.36986069,13.3333691 9.46756074,13.2929754 9.53949356,13.2209182 C9.61142638,13.148861 9.65165134,13.0510914 9.65125348,12.9488858 L9.65125349,9.41828824 C9.651162,9.20608038 9.47915639,9.03407477 9.26699164,9.03398329 L5.89746651,9.03398328 C5.68525865,9.03407477 5.51325304,9.20608038 5.51316156,9.41824513 L5.51316155,12.9488427 C5.51325304,13.1610505 5.68525865,13.3330562 5.8974234,13.3331476 L9.2678273,13.3331476 Z M6.38168524,12.564415 L6.28168524,12.464415 L6.28168524,9.90250696 L6.38168524,9.80250696 L8.78252089,9.80250696 L8.88252089,9.90250696 L8.88252089,12.464415 L8.78252089,12.564415 L6.38168524,12.564415 Z M14.5006964,13.3331476 L14.5009128,13.3331479 C14.6028355,13.3333684 14.7006472,13.2929774 14.7727176,13.220907 C14.844788,13.1488366 14.885179,13.0510249 14.8849582,12.9488858 L14.8849582,9.41828824 C14.8848667,9.20608038 14.7128611,9.03407477 14.5006964,9.03398329 L11.1313802,9.03398328 C10.9191723,9.03407477 10.7471667,9.20608038 10.7470752,9.41824513 L10.7470752,12.9488427 C10.7471667,13.1610505 10.9191723,13.3330562 11.131337,13.3331476 L14.5006964,13.3331476 Z M11.5155989,12.464415 L11.5155989,9.90250696 L11.6155989,9.80250696 L14.0164345,9.80250696 L14.1164345,9.90250696 L14.1164345,12.464415 L14.0164345,12.564415 L11.6155989,12.564415 L11.5155989,12.464415 Z"></path>
                        </g>
                        <polygon id="Shape" fill="#979797" points="7.16423236 9.47956159 7.15654596 4 7.87885958 4 7.88654598 9.5"></polygon>
                        <path d="M13.3568942,9.40278552 L12.6305014,9.40278552 L12.6305014,6.67855153 L2.5347493,6.67855153 L2.5347493,9.40278552 L1.80835655,9.40278552 L1.80835655,6.3152507 C1.80847188,6.11468678 1.97109343,5.95215874 2.17165738,5.95215877 L12.9933844,5.95215877 C13.1938668,5.95227403 13.3563611,6.11476832 13.3564763,6.3152507 L13.3564763,9.40278552 L13.3568942,9.40278552 Z" id="Shape" fill="#979797"></path>
                    </g>
                </g>
            </g>
        </g>
    </g>
</svg>