<?xml version="1.0" encoding="UTF-8"?>
<svg width="99px" height="32px" viewBox="0 0 99 32" version="1.1" xmlns="http://www.w3.org/2000/svg" xmlns:xlink="http://www.w3.org/1999/xlink">
    <!-- Generator: Sketch 46.2 (44496) - http://www.bohemiancoding.com/sketch -->
    <title>权限配置 copy</title>
    <desc>Created with Sketch.</desc>
    <defs>
        <rect id="path-1" x="0" y="0" width="99" height="31.271028" rx="5"></rect>
    </defs>
    <g id="仪表盘" stroke="none" stroke-width="1" fill="none" fill-rule="evenodd">
        <g id="仪表盘-我创建的普通用户-copy-2" transform="translate(-1161.000000, -201.000000)">
            <g id="图表" transform="translate(120.000000, 102.000000)">
                <g id="权限配置-copy" transform="translate(1041.000000, 99.000000)">
                    <g id="Combined-Shape">
                        <use fill="#FFFFFF" fill-rule="evenodd" xlink:href="#path-1"></use>
                        <rect stroke="#7F7979" stroke-width="0.5" x="0.25" y="0.25" width="98.5" height="30.771028" rx="5"></rect>
                    </g>
                    <text id="画布排序" font-family="STHeitiSC-Light, Heiti SC" font-size="13" font-weight="300" letter-spacing="-0.139285728" fill="#7F7979">
                        <tspan x="36" y="19.9345794">画布排序</tspan>
                    </text>
                    <g id="Group-6" transform="translate(11.000000, 10.000000)" fill="#7F7979">
                        <g id="排序" stroke="#FFFFFF" stroke-width="0.2" fill-rule="nonzero">
                            <path d="M7.32297118,3.49850035 L0.451150596,3.49850035 C0.201995162,3.49850035 0,3.29418793 0,3.04217422 C0,2.79016051 0.201995162,2.58584808 0.451150596,2.58584808 L7.32297118,2.58584808 C7.57212662,2.58584808 7.77412178,2.79016051 7.77412178,3.04217422 C7.77412178,3.29418793 7.57212662,3.49850035 7.32297118,3.49850035 Z M8.65506852,7.24925779 L0.451150596,7.24925779 C0.201995162,7.24925779 0,7.04494536 0,6.79293165 C0,6.54091794 0.201995162,6.33660552 0.451150596,6.33660552 L8.65506852,6.33660552 C8.90422395,6.33660552 9.10621912,6.54091794 9.1062191,6.79293165 C9.10621909,7.04494536 8.90422394,7.24925779 8.65506852,7.24925779 L8.65506852,7.24925779 Z M13.5488494,11 L0.451150596,11 C0.201995162,11 0,10.7956876 0,10.5436739 C0,10.2916602 0.201995162,10.0873477 0.451150596,10.0873477 L13.5488494,10.0873477 C13.7980048,10.0873477 14,10.2916602 14,10.5436739 C14,10.7956876 13.7980048,11 13.5488494,11 Z M10.0298748,9.43074006 C9.78071932,9.43074006 9.57872416,9.22642764 9.57872416,8.97441394 L9.57872416,0.456326133 C9.57872416,0.204312422 9.78071932,0 10.0298748,0 C10.2790302,0 10.4810254,0.204312422 10.4810254,0.456326133 L10.4810254,8.97441394 C10.4810254,9.22642765 10.2790302,9.43074007 10.0298748,9.43074006 L10.0298748,9.43074006 Z M11.8795922,9.43074006 C11.6304368,9.43074006 11.4284416,9.22642764 11.4284416,8.97441394 L11.4284416,0.456326133 C11.4284416,0.204312422 11.6304368,0 11.8795922,0 C12.1287476,0 12.3307428,0.204312422 12.3307428,0.456326133 L12.3307428,8.97441394 C12.3307428,9.22642765 12.1287476,9.43074007 11.8795922,9.43074006 L11.8795922,9.43074006 Z" id="Shape"></path>
                            <path d="M8.47909057,2.36311447 C8.34840748,2.36311447 8.21826719,2.30967028 8.12371113,2.20453179 C7.94630079,2.00724259 7.96151469,1.7026797 8.15769895,1.52427015 L9.69696872,0.124414277 C9.89316894,-0.0540113173 10.1959942,-0.0386956795 10.3734205,0.158593521 C10.5508308,0.355882721 10.5356169,0.660445614 10.3394327,0.838855144 L8.80016289,2.23871102 C8.71224921,2.31889279 8.59777544,2.36324707 8.47909057,2.36311447 L8.47909057,2.36311447 Z M11.981943,9.46310861 C11.8512759,9.46310861 11.7211356,9.40966442 11.6265795,9.30452591 C11.4491692,9.10723671 11.4643831,8.80267382 11.6605674,8.62426427 L13.1998371,7.2244084 C13.3960373,7.04599885 13.6988626,7.06131449 13.8762889,7.25858764 C14.0536992,7.45587684 14.0384853,7.76043973 13.8423011,7.93884928 L12.3030313,9.33870515 C12.2151119,9.41888798 12.1006328,9.46324211 11.981943,9.46310861 L11.981943,9.46310861 Z" id="Shape"></path>
                        </g>
                        <rect id="Rectangle-3" x="9.68017578" y="0.199996948" width="1" height="2" rx="0.5"></rect>
                        <rect id="Rectangle-3" x="11.5297852" y="7.30000305" width="1" height="2" rx="0.5"></rect>
                    </g>
                </g>
            </g>
        </g>
    </g>
</svg>