<?xml version="1.0" encoding="UTF-8"?>
<svg width="29px" height="29px" viewBox="0 0 29 29" version="1.1" xmlns="http://www.w3.org/2000/svg" xmlns:xlink="http://www.w3.org/1999/xlink">
    <!-- Generator: Sketch 42 (36781) - http://www.bohemiancoding.com/sketch -->
    <title>配置@3x</title>
    <desc>Created with Sketch.</desc>
    <defs>
        <circle id="path-1" cx="14.5" cy="14.5" r="14.5"></circle>
        <mask id="mask-2" maskContentUnits="userSpaceOnUse" maskUnits="objectBoundingBox" x="0" y="0" width="29" height="29" fill="white">
            <use xlink:href="#path-1"></use>
        </mask>
        <rect id="path-3" x="0" y="13" width="13" height="0.5"></rect>
        <mask id="mask-4" maskContentUnits="userSpaceOnUse" maskUnits="objectBoundingBox" x="0" y="0" width="13" height="0.5" fill="white">
            <use xlink:href="#path-3"></use>
        </mask>
    </defs>
    <g id="新版本" stroke="none" stroke-width="1" fill="none" fill-rule="evenodd">
        <g id="仪表盘-我创建的-copy-3" transform="translate(-1304.000000, -202.000000)">
            <g id="配置" transform="translate(1304.000000, 202.000000)">
                <use id="Oval-3" stroke="#D8D8D8" mask="url(#mask-2)" stroke-width="1" xlink:href="#path-1"></use>
                <g id="编辑" transform="translate(8.000000, 8.000000)" fill-rule="evenodd">
                    <path d="M10.5978636,4.07563176 L3.32379629,11.3587223 L1.64417381,9.67909986 L8.92210822,2.39987641 L10.5978636,4.07563176 L10.5978636,4.07563176 Z M11.0535401,3.61995521 L9.37842929,1.94484438 L10.4915176,0.831111587 C10.7435254,0.579103763 11.1515074,0.581037327 11.4048042,0.833045151 L12.1653394,1.59164671 C12.4179917,1.84365453 12.4199253,2.25228103 12.168562,2.50428886 L11.0541846,3.61995521 L11.0535401,3.61995521 Z M1.22716854,10.1734477 L2.83524916,11.7815283 L0.814674911,12.1791979 L1.22716854,10.1728032 L1.22716854,10.1734477 Z M0.64452129,9.77964518 L0,13.0022516 L3.22260645,12.3577303 L12.6197269,2.96060993 C13.1250316,2.45530524 13.1263206,1.6367632 12.6261721,1.13661468 L11.865637,0.376724078 C11.3635549,-0.125358007 10.5527471,-0.127936092 10.0416417,0.383169291 L0.64452129,9.7802897 L0.64452129,9.77964518 Z" id="Shape" fill="#979797"></path>
                    <use id="Rectangle-4" stroke="#979797" mask="url(#mask-4)" stroke-width="2" fill="#D8D8D8" xlink:href="#path-3"></use>
                </g>
            </g>
        </g>
    </g>
</svg>