<?xml version="1.0" encoding="UTF-8"?>
<svg width="136px" height="72px" viewBox="0 0 136 72" version="1.1" xmlns="http://www.w3.org/2000/svg" xmlns:xlink="http://www.w3.org/1999/xlink">
    <!-- Generator: Sketch 43.1 (39012) - http://www.bohemiancoding.com/sketch -->
    <title>Artboard 2 Copy 2</title>
    <desc>Created with Sketch.</desc>
    <defs></defs>
    <g id="Page-1" stroke="none" stroke-width="1" fill="none" fill-rule="evenodd">
        <g id="Artboard-2-Copy-2" fill-rule="nonzero">
            <g id="Group-3">
                <g id="Group-2">
                    <path d="M2.68085516,15.6116322 C1.92212257,2.72824641 11.3556978,4.31972348 19.6258831,8.2352623 C26.1762745,11.3171703 34.1935489,17.3799401 37.3549347,26.1709563 C37.3549347,22.1543713 34.2441311,14.3990783 27.9213595,8.26052384 C19.6511742,0.202092326 7.94140115,-1.81883094 3.26255015,2.09670789 C-1.69450279,6.1890775 0.0252910865,12.8328627 2.68085516,15.6116322 Z" id="Shape" fill="#E60012"></path>
                    <path d="M4.50181339,9.24572393 C7.48616159,20.461848 9.28182873,20.0829249 14.6941212,27.7371718 C18.1842912,32.6631723 18.7406951,39.2059113 12.5443789,42.5909578 C13.8595154,38.675419 14.036553,35.8713879 11.5074443,31.1980029 C8.24489419,25.1857562 1.4921741,20.1839711 4.50181339,9.24572393 Z" id="Shape" fill="#C30D23"></path>
                    <path d="M6.27218944,64.5937598 C7.58732594,69.368191 10.3187633,68.711391 12.8225808,62.5728366 C13.6824778,60.4256056 14.4917925,56.1564052 15.1493608,54.6407127 C15.7057647,53.3271126 17.248521,52.8724049 17.248521,52.8724049 C17.248521,52.8724049 16.5150795,62.4212673 13.7330599,67.9030217 C10.0152702,75.25413 5.71578554,71.237545 6.27218944,64.5937598 Z" id="Shape" fill="#C30D23"></path>
                    <path d="M25.6957438,13.3633551 C25.6198706,13.2875705 25.5439973,13.2370474 25.4681241,13.1612628 C29.8181909,20.2597557 30.6275057,30.1370182 27.3902466,33.9009877 C21.952663,40.2163729 9.78765046,43.1467117 5.2352549,49.3863123 C0.682859334,55.6259128 0.809314767,64.4421906 5.56403902,70.7828373 C5.61462119,70.8080989 5.66520337,70.8333604 5.69049445,70.8586219 C4.62826882,66.3368061 5.2352549,62.2696981 9.23124656,57.3184361 C14.4917925,50.8514816 25.0128845,49.6641892 32.0438065,42.2625578 C43.9811994,29.7580951 33.05545,19.6787403 25.6957438,13.3633551 Z" id="Shape" fill="#E60012"></path>
                </g>
                <g id="Group" transform="translate(41.047953, 36.000000)" fill="#595757">
                    <g transform="translate(31.947043, 0.000000)">
                        <path d="M28.6149324,6.55350205 C28.6149324,5.93589453 28.5805807,5.52415618 28.4775257,5.28397548 C28.3057674,4.8379256 27.9966025,4.49481031 27.5500309,4.22031807 C27.0691077,3.98013737 26.6225361,3.84289126 26.2790195,3.84289126 L25.729393,3.84289126 L25.729393,3.84289126 L21.9850621,3.84289126 L21.9850621,3.84289126 L15.9735217,3.84289126 L15.9735217,3.84289126 L12.2635424,3.84289126 L12.2635424,3.84289126 L6.59551863,3.84289126 L6.59551863,3.84289126 L2.85118774,3.84289126 L2.85118774,3.84289126 C2.26720953,3.84289126 1.75193463,3.98013737 1.33971472,4.22031807 C0.68703319,4.63205642 0.343516595,5.21535242 0.309164936,5.97020606 L0.309164936,12.4893966 L1.20230808,12.9354465 L2.91989106,12.9354465 L4.01914416,12.4893966 L4.01914416,6.89661734 C4.01914416,6.65643664 4.08784748,6.45056746 4.22525412,6.34763288 C4.36266076,6.24469829 4.84358399,6.21038676 5.66802382,6.21038676 L23.2560735,6.21038676 C24.01181,6.21038676 24.4927332,6.27900982 24.6301399,6.38194441 C24.7675465,6.48487899 24.8362498,6.7250597 24.8362498,7.10248652 L24.8362498,12.5923312 L25.6950413,13.8961693 L27.4126243,13.8961693 L28.5462291,12.7982003 L28.6149324,6.55350205 Z" id="Shape"></path>
                        <path d="M0.343516595,13.5187425 C0.343516595,14.13635 0.377868255,14.5480883 0.480923233,14.788269 C0.652681531,15.2343189 0.961846466,15.5774342 1.40841804,15.8519264 C1.88934127,16.0921071 2.33591285,16.2293532 2.67942944,16.2293532 L3.22905599,16.2293532 L3.22905599,16.2293532 L6.93903522,16.2293532 L6.93903522,16.2293532 L12.9505756,16.2293532 L12.9505756,16.2293532 L16.6605549,16.2293532 L16.6605549,16.2293532 L22.3285787,16.2293532 L22.3285787,16.2293532 L26.0729096,16.2293532 L26.0729096,16.2293532 C26.6568878,16.2293532 27.1721627,16.0921071 27.5843826,15.8519264 C28.2370641,15.4401881 28.5805807,14.8568921 28.6149324,14.1020384 L28.6149324,12.2835274 L27.6187342,12.2835274 L25.9011513,12.2835274 L24.9049531,12.2835274 L24.9049531,13.2099387 C24.9049531,13.4501194 24.8362498,13.6559886 24.6988432,13.7589232 C24.5614365,13.8618577 24.0805133,13.8961693 23.2560735,13.8961693 L5.66802382,13.8961693 C4.91228731,13.8961693 4.43136408,13.8275462 4.29395744,13.7246116 C4.1565508,13.621677 4.08784748,13.3814963 4.08784748,13.0040695 L4.08784748,12.2492159 L3.09164936,12.2492159 L1.37406638,12.2492159 L0.343516595,12.2492159 L0.343516595,13.5187425 Z" id="Shape"></path>
                        <rect id="Rectangle-path" x="12.607059" y="0.0686230581" width="3.70997923" height="21.8221325"></rect>
                    </g>
                    <g id="Shape">
                        <path d="M10.8207727,18.8370295 C12.4696524,18.0135528 13.5345538,17.3616337 13.7750155,17.121453 C14.221587,16.7097147 14.427697,16.1264187 14.427697,15.3372535 L14.427697,14.9255151 L14.427697,14.9255151 L15.4238951,14.9255151 L15.4238951,12.8325119 L14.427697,12.8325119 L14.427697,12.8325119 L14.427697,11.8374775 L13.4314989,11.8374775 L11.8513225,11.8374775 L10.8551244,11.8374775 L10.8551244,12.8325119 L4.74052901,12.8325119 L4.74052901,11.8374775 L3.74433089,11.8374775 L2.16415455,11.8374775 L1.16795642,11.8374775 L1.16795642,12.8325119 L0.206109957,12.8325119 L0.206109957,14.9255151 L1.16795642,14.9255151 C1.16795642,15.371565 1.20230808,15.7146803 1.23665974,15.886238 C1.40841804,16.6754031 1.95804459,17.2930106 2.98859438,17.8076836 L4.98099063,18.8370295 C3.84738586,19.454637 0.206109957,19.8320638 0.206109957,19.8320638 L0.206109957,21.8221325 L1.20230808,21.8221325 L1.20230808,21.8221325 C2.81683608,21.8221325 6.04589207,21.273148 7.17949684,20.7584751 C7.48866177,20.621229 7.72912339,20.5182944 7.93523335,20.4153598 C10.6490144,21.6848864 14.7712136,21.787821 14.7712136,21.787821 L15.7674117,21.787821 L15.7674117,19.8320638 C15.5613018,19.9006869 12.3665974,19.6605062 10.8207727,18.8370295 L10.8207727,18.8370295 Z M10.8551244,15.0284497 C10.8207727,15.4744996 10.5116078,15.8519264 9.9276296,16.1607302 L7.86653003,17.4302568 C7.86653003,17.4302568 5.32450722,15.9891725 5.11839727,15.7833034 C4.94663897,15.6117457 4.84358399,15.3372535 4.80923233,15.0627613 L10.8551244,15.0627613 L10.8551244,15.0284497 Z"></path>
                        <path d="M5.18710059,8.40632462 L5.18710059,7.37697875 L4.19090246,7.37697875 L2.43896783,7.37697875 L1.4427697,7.37697875 L1.4427697,8.40632462 C1.4427697,8.78375144 1.23665974,8.98962062 0.790088169,9.05824367 L0.790088169,11.4257392 C1.13360476,11.3914276 5.18710059,11.3228046 5.18710059,8.40632462"></path>
                        <path d="M10.7864211,8.40632462 L10.7864211,7.37697875 L11.7826192,7.37697875 L13.5345538,7.37697875 L14.530752,7.37697875 L14.530752,8.40632462 C14.530752,8.78375144 14.7368619,8.98962062 15.1834335,9.05824367 L15.1834335,11.4257392 C14.8399169,11.3914276 10.7864211,11.3228046 10.7864211,8.40632462"></path>
                        <path d="M27.0004044,7.96027474 L27.2065143,3.94582584 L27.4126243,3.94582584 L28.4088224,3.94582584 L28.4088224,1.57833034 L27.4126243,1.57833034 L20.6453474,1.57833034 L21.0919189,0.0343115291 L20.0957208,0.0343115291 L18.3094345,0.0343115291 L17.8285113,0.0343115291 C17.759808,2.1273148 16.2139833,4.08307196 15.7330601,4.35756419 L15.7330601,7.27404416 C17.5880497,6.69074817 18.8934127,5.59277924 19.9239625,3.94582584 L23.3591285,3.94582584 L23.2217218,7.85734016 C23.1530185,9.36704743 23.0156119,10.7395086 22.7751503,11.9404121 C22.6377436,12.5580196 22.4659853,13.1413156 22.2255237,13.7246116 C21.8133038,12.7982003 21.5041389,11.9747236 21.2980289,11.1855585 C21.1606223,10.6708855 20.8514573,9.33273591 20.3705341,7.2054211 L19.374336,7.2054211 L17.656753,7.2054211 L16.6605549,7.2054211 C17.2788847,9.88172037 17.6911046,11.6316084 17.9315663,12.4207735 C18.4468412,13.9647923 19.1338743,15.4401881 20.0613692,16.8812723 C19.3399843,17.8076836 17.7254563,19.0085871 16.5231482,19.4889485 L16.5231482,21.856444 C16.6262032,21.8221325 19.6491492,21.1359019 22.2598754,19.2487678 C23.7026451,20.3810483 26.1416129,21.3417711 27.7217892,21.8907555 L27.7217892,19.454637 C26.9317011,19.0772102 24.9049531,17.6704375 24.4583816,17.0185184 C25.2484697,15.7833034 25.832448,14.5137768 26.2103162,13.1756272 C26.6225361,11.5972968 26.8973494,9.84740884 27.0004044,7.96027474"></path>
                        <polygon points="15.0460269 3.87720278 14.0498287 3.87720278 9.82457462 3.87720278 9.82457462 0.0686230581 8.82837649 0.0686230581 7.11079352 0.0686230581 6.11459539 0.0686230581 6.11459539 3.87720278 1.16795642 3.87720278 0.171758298 3.87720278 0.171758298 6.24469829 1.16795642 6.24469829 6.11459539 6.24469829 6.11459539 11.21987 7.11079352 11.21987 8.82837649 11.21987 9.82457462 11.21987 9.82457462 6.24469829 12.7444657 6.24469829 14.0498287 6.24469829 14.5651036 6.24469829 15.0460269 6.24469829"></polygon>
                        <polygon points="3.77868255 0.102934587 2.09545123 0.102934587 1.0992531 0.102934587 1.0992531 2.60767621 2.06109957 2.60767621 3.77868255 2.60767621 4.77488067 2.60767621 4.77488067 0.102934587"></polygon>
                        <polygon points="13.6376088 0.102934587 11.9200258 0.102934587 10.9581794 0.102934587 10.9581794 2.60767621 11.9200258 2.60767621 13.6376088 2.60767621 14.633807 2.60767621 14.633807 0.102934587"></polygon>
                    </g>
                    <g transform="translate(64.581120, 0.000000)" id="Shape">
                        <path d="M10.7177178,18.8027179 C12.3665974,17.9792412 13.4314989,17.3273222 13.6719605,17.0871415 C14.1185321,16.6754031 14.324642,16.0921071 14.324642,15.302942 L14.324642,14.8912036 L14.324642,14.8912036 L15.3208401,14.8912036 L15.3208401,12.7982003 L14.324642,12.7982003 L14.324642,12.7982003 L14.324642,11.803166 L13.3284439,11.803166 L11.7482676,11.803166 L10.7520694,11.803166 L10.7520694,12.7982003 L4.63747403,12.7982003 L4.63747403,11.803166 L3.64127591,11.803166 L2.06109957,11.803166 L1.03054979,11.803166 L1.03054979,12.7982003 L0.068703319,12.7982003 L0.068703319,14.8912036 L1.03054979,14.8912036 C1.03054979,15.3372535 1.06490144,15.6803688 1.0992531,15.8519264 C1.2710114,16.6410916 1.82063795,17.2586991 2.85118774,17.7733721 L4.84358399,18.8027179 C3.70997923,19.4203255 0.068703319,19.7977523 0.068703319,19.7977523 L0.068703319,21.787821 L1.06490144,21.787821 L1.06490144,21.787821 C2.67942944,21.787821 5.90848544,21.2388365 7.0420902,20.7241636 C7.35125513,20.5869174 7.59171675,20.4839829 7.79782671,20.3810483 C10.5116078,21.6505748 14.633807,21.7535094 14.633807,21.7535094 L15.6300051,21.7535094 L15.6300051,19.7977523 C15.4582468,19.8663753 12.2635424,19.6261946 10.7177178,18.8027179 L10.7177178,18.8027179 Z M10.7177178,14.9941382 C10.6833661,15.4401881 10.3742012,15.8176149 9.79022296,16.1264187 L7.72912339,17.3959452 C7.72912339,17.3959452 5.18710059,15.954861 4.98099063,15.7489918 C4.80923233,15.5774342 4.70617735,15.302942 4.67182569,15.0284497 L10.7177178,15.0284497 L10.7177178,14.9941382 Z"></path>
                        <path d="M5.04969395,8.37201309 L5.04969395,7.34266722 L4.05349582,7.34266722 L2.30156119,7.34266722 L1.30536306,7.34266722 L1.30536306,8.37201309 C1.30536306,8.74943991 1.0992531,8.95530909 0.652681531,9.02393214 L0.652681531,11.3914276 C1.03054979,11.3571161 5.04969395,11.2884931 5.04969395,8.37201309"></path>
                        <path d="M10.6833661,8.37201309 L10.6833661,7.34266722 L11.6795642,7.34266722 L13.4314989,7.34266722 L14.427697,7.34266722 L14.427697,8.37201309 C14.427697,8.74943991 14.633807,8.95530909 15.0803785,9.02393214 L15.0803785,11.3914276 C14.7368619,11.3571161 10.6833661,11.2884931 10.6833661,8.37201309"></path>
                        <path d="M26.8973494,7.92596321 L27.1034594,3.91151431 L27.3095693,3.91151431 L28.3057674,3.91151431 L28.3057674,1.54401881 L27.3095693,1.54401881 L20.5422924,1.54401881 L20.988864,0 L19.9926658,0 L18.2063795,0 L17.7254563,0 C17.656753,2.09300327 16.1109283,4.04876043 15.6300051,4.32325266 L15.6300051,7.23973263 C17.4849947,6.65643664 18.7903578,5.55846771 19.8209075,3.91151431 L23.2904251,3.91151431 L23.1530185,7.82302863 C23.0843152,9.33273591 22.9469086,10.7051971 22.7064469,11.9061006 C22.5690403,12.5237081 22.397282,13.1070041 22.1568204,13.6903001 C21.7446005,12.7638888 21.4354355,11.9404121 21.2293256,11.1512469 C21.0919189,10.636574 20.782754,9.29842438 20.3018308,7.17110957 L19.3056326,7.17110957 L17.5880497,7.17110957 L16.5918515,7.17110957 C17.2101814,9.84740884 17.6224013,11.5972968 17.8628629,12.386462 C18.3781378,13.9304808 19.065171,15.4058766 19.9926658,16.8469608 C19.271281,17.7733721 17.656753,18.9742756 16.4544449,19.454637 L16.4544449,21.8221325 C16.5574999,21.787821 19.5804459,21.1015904 22.191172,19.2144563 C23.6339417,20.3467367 26.0729096,21.3074595 27.6530859,21.856444 L27.6530859,19.4203255 C26.8629977,19.0428986 24.8362498,17.6361259 24.3896783,16.9842069 C25.1797664,15.7489918 25.7637446,14.4794653 26.1416129,13.1413156 C26.5194811,11.5629853 26.7942944,9.81309731 26.8973494,7.92596321"></path>
                        <polygon points="14.9429719 3.84289126 13.9467738 3.84289126 9.72151964 3.84289126 9.72151964 0.0343115291 8.72532152 0.0343115291 7.00773854 0.0343115291 6.01154041 0.0343115291 6.01154041 3.84289126 1.06490144 3.84289126 0.068703319 3.84289126 0.068703319 6.21038676 1.06490144 6.21038676 6.01154041 6.21038676 6.01154041 11.21987 7.00773854 11.21987 8.72532152 11.21987 9.72151964 11.21987 9.72151964 6.21038676 12.6414107 6.21038676 13.9467738 6.21038676 14.4620487 6.21038676 14.9429719 6.21038676"></polygon>
                        <polygon points="3.67562757 0.102934587 1.99239625 0.102934587 0.996198126 0.102934587 0.996198126 2.60767621 1.95804459 2.60767621 3.67562757 2.60767621 4.67182569 2.60767621 4.67182569 0.102934587"></polygon>
                        <polygon points="13.5345538 0.102934587 11.8169709 0.102934587 10.8551244 0.102934587 10.8551244 2.60767621 11.7826192 2.60767621 13.5345538 2.60767621 14.530752 2.60767621 14.530752 0.102934587"></polygon>
                    </g>
                </g>
            </g>
        </g>
    </g>
</svg>