<?xml version="1.0" encoding="UTF-8"?>
<svg width="12px" height="12px" viewBox="0 0 12 12" version="1.1" xmlns="http://www.w3.org/2000/svg" xmlns:xlink="http://www.w3.org/1999/xlink">
    <!-- Generator: Sketch 43.1 (39012) - http://www.bohemiancoding.com/sketch -->
    <title>我 copy@3x</title>
    <desc>Created with Sketch.</desc>
    <defs></defs>
    <g id="仪表盘" stroke="none" stroke-width="1" fill="none" fill-rule="evenodd">
        <g id="仪表盘-来自分享" transform="translate(-167.000000, -400.000000)">
            <g id="我-copy" transform="translate(167.000000, 400.000000)">
                <path d="M0.00560072109,4.63725165 C0.00560072109,2.35696346 1.75099912,0.00600447619 4.63684789,0.00600447619 L7.35591865,0.00600447619 C9.69903925,0.00600447619 11.9871658,1.91819482 11.9871658,4.63725165 C11.9871658,4.63725165 11.9957839,5.00131197 11.9871658,7.35632241 C11.9785478,9.70148961 10.1613509,11.9941271 7.35591865,11.9875696 C7.35591865,11.9875696 6.94378382,11.9941271 4.63684789,11.9875696 C2.32991196,11.9810121 0.00560072109,10.0753932 0.00560072109,7.35632239 L0.00560072109,4.63725165 Z M0.634286639,7.21385312 C0.634286639,9.64766509 2.71477256,11.3533843 4.77969309,11.3592596 C6.8445997,11.365121 7.21350506,11.3592596 7.21350506,11.3592596 C9.72462886,11.365121 11.3511984,9.31299522 11.3589115,7.21385312 C11.3666246,5.10591196 11.3589115,4.78004114 11.3589115,4.78004114 C11.3589115,2.34622917 9.3108094,0.634634694 7.21350506,0.634634694 L4.77969309,0.634634694 C2.1965898,0.634634694 0.634286639,2.73896992 0.634286639,4.78004114 L0.634286639,7.21385312 Z" id="Shape" fill="#FB6271" fill-rule="nonzero"></path>
                <path d="M5.22290165,9.81429008 L2.57142857,6.46995422 L4.0762298,6.46995422 C4.06421525,6.34985975 4.05774589,6.22841174 4.05774589,6.10539914 C4.05774589,4.09203572 5.72126858,2.57142857 7.77341911,2.57142857 C7.87461487,2.57142857 7.97373665,2.57838551 8.0723927,2.5862448 C7.04516037,3.33578915 6.65862108,3.5537319 6.65862108,6.10539914 C6.65862108,6.22841174 6.66786304,6.34895739 6.67594793,6.46995422 L8.14285714,6.47197726 L5.22290165,9.81429008 Z" id="Path" stroke="#FB6271" stroke-width="0.8" fill="#FFFFFF"></path>
            </g>
        </g>
    </g>
</svg>