<?xml version="1.0" encoding="UTF-8"?>
<svg width="29px" height="29px" viewBox="0 0 29 29" version="1.1" xmlns="http://www.w3.org/2000/svg" xmlns:xlink="http://www.w3.org/1999/xlink">
    <!-- Generator: Sketch 43.1 (39012) - http://www.bohemiancoding.com/sketch -->
    <title>删除 copy 3</title>
    <desc>Created with Sketch.</desc>
    <defs></defs>
    <g id="本地分析引擎-仪表盘" stroke="none" stroke-width="1" fill="none" fill-rule="evenodd">
        <g id="仪表盘-copy" transform="translate(-1215.000000, -197.000000)">
            <g id="Group-8" transform="translate(1050.000000, 197.000000)">
                <g id="全屏" transform="translate(165.000000, 0.000000)">
                    <circle id="Oval-3" stroke="#D8D8D8" stroke-width="0.5" cx="14.5" cy="14.5" r="14.25"></circle>
                    <g stroke-width="1" fill-rule="evenodd" transform="translate(8.000000, 8.000000)" id="Shape" stroke="#FFFFFF" fill="#979797">
                        <path d="M13.8277405,0.166181411 C13.7337808,0.0721164614 13.6085011,0.0203807391 13.4753915,0.0203807391 L13.4738255,0.0203807391 L8.96219239,0.0376259798 C8.68657718,0.039193729 8.46420582,0.26181411 8.46420582,0.539305711 C8.46577181,0.813661814 8.68814318,1.03784994 8.96375839,1.03784994 L8.96532438,1.03784994 L12.1474273,1.02530795 L8.7163311,4.4868981 C8.52214765,4.68129899 8.52371365,4.99955207 8.71946309,5.19395297 C8.81655481,5.29115342 8.94340045,5.33975364 9.07024609,5.33975364 C9.19865772,5.33975364 9.32706935,5.28958567 9.42416107,5.19081747 L12.9774049,1.60694289 L12.9774049,4.83807391 C12.9774049,5.11399776 13.1997763,5.33818589 13.4769575,5.33818589 C13.7525727,5.33818589 13.9765101,5.11556551 13.9765101,4.83807391 L13.9765101,0.520492721 C13.9749441,0.387234043 13.9217002,0.260246361 13.8277405,0.166181411 Z M0.16442953,0.145800672 C0.258389262,0.0517357223 0.383668904,0 0.516778523,0 L0.518344519,0 L5.02997763,0.0188129899 C5.30559284,0.0203807391 5.52796421,0.244568869 5.52796421,0.520492721 C5.52639821,0.794848824 5.30402685,1.01903695 5.02841163,1.01903695 L5.02684564,1.01903695 L1.84317673,1.00492721 L5.27583893,4.46651736 C5.47002237,4.66091825 5.46845638,4.97917133 5.27270694,5.17357223 C5.17561521,5.27077268 5.04876957,5.3193729 4.92192394,5.3193729 C4.7935123,5.3193729 4.66510067,5.26920493 4.56800895,5.17043673 L1.0147651,1.58656215 L1.0147651,4.81769317 C1.0147651,5.09361702 0.792393736,5.31780515 0.515212528,5.31780515 C0.23803132,5.31780515 0.0156599553,5.09518477 0.0156599553,4.81769317 L0.0156599553,0.500111982 C0.0172259508,0.368421053 0.0704697987,0.239865622 0.16442953,0.145800672 L0.16442953,0.145800672 Z M13.8277405,13.8353863 C13.7337808,13.9294513 13.6085011,13.981187 13.4753915,13.981187 L13.4738255,13.981187 L8.96219239,13.9639418 C8.68657718,13.962374 8.46420582,13.7381859 8.46420582,13.462262 C8.46577181,13.1879059 8.68814318,12.9637178 8.96375839,12.9637178 L8.96532438,12.9637178 L12.1474273,12.9762598 L8.7163311,9.5162374 C8.52214765,9.32183651 8.52371365,9.00358343 8.71946309,8.80918253 C8.81655481,8.71198208 8.94340045,8.66338186 9.07024609,8.66338186 C9.19865772,8.66338186 9.32706935,8.71354983 9.42416107,8.81231803 L12.9774049,12.3946249 L12.9774049,9.16349384 C12.9774049,8.88756999 13.1997763,8.66338186 13.4769575,8.66338186 C13.7525727,8.66338186 13.9765101,8.88600224 13.9765101,9.16349384 L13.9765101,13.481075 C13.9749441,13.6143337 13.9217002,13.7413214 13.8277405,13.8353863 L13.8277405,13.8353863 Z M0.148769575,13.8400896 C0.242729306,13.9341545 0.368008949,13.9858903 0.501118568,13.9858903 L0.502684564,13.9858903 L5.01431767,13.968645 C5.28993289,13.9670773 5.51230425,13.7428891 5.51230425,13.4669653 C5.51073826,13.1926092 5.28836689,12.9684211 5.01275168,12.9684211 L5.01118568,12.9684211 L1.82908277,12.980963 L5.26174497,9.5193729 C5.45592841,9.324972 5.45436242,9.00671892 5.25861298,8.81231803 C5.16152125,8.71511758 5.03467562,8.66651736 4.90782998,8.66651736 C4.77941834,8.66651736 4.65100671,8.71668533 4.55391499,8.81545353 L0.999105145,12.3993281 L0.999105145,9.16819709 C0.999105145,8.89227324 0.776733781,8.66808511 0.499552573,8.66808511 C0.222371365,8.66808511 0,8.89070549 0,9.16819709 L0,13.4857783 C0.00156599553,13.619037 0.0548098434,13.7460246 0.148769575,13.8400896 L0.148769575,13.8400896 Z" stroke-width="0.3" fill-rule="nonzero"></path>
                    </g>
                </g>
            </g>
        </g>
    </g>
</svg>