<?xml version="1.0" encoding="UTF-8"?>
<svg width="12px" height="16px" viewBox="0 0 12 16" version="1.1" xmlns="http://www.w3.org/2000/svg" xmlns:xlink="http://www.w3.org/1999/xlink">
    <!-- Generator: Sketch 43.1 (39012) - http://www.bohemiancoding.com/sketch -->
    <title>删除</title>
    <desc>Created with Sketch.</desc>
    <defs></defs>
    <g id="本地分析引擎-仪表盘" stroke="none" stroke-width="1" fill="none" fill-rule="evenodd">
        <g id="仪表盘--不查看数据-copy-2" transform="translate(-1151.000000, -325.000000)" fill="#979797">
            <g id="线索统计" transform="translate(154.000000, 178.000000)">
                <g id="Group-9-Copy-3" transform="translate(557.000000, 0.000000)">
                    <g id="Group-20-Copy" transform="translate(419.000000, 47.000000)">
                        <g id="删除" transform="translate(21.000000, 100.000000)">
                            <path d="M8.78792867,1.77777778 L11.4919067,1.77777778 L11.4919067,2.37037037 L0,2.37037037 L0,1.77777778 L2.70397805,1.77777778 L2.70397805,1.18518519 C2.70397805,0.526222222 3.30831715,0 4.05393909,0 L7.43729163,0 C8.18223759,0 8.78725267,0.53037037 8.78725267,1.18518519 L8.78725267,1.77777778 L8.78792867,1.77777778 Z M0,2.96296296 L11.4919067,2.96296296 L11.4919067,14.2216296 C11.4919067,15.2041481 10.5840461,16 9.46392318,16 L2.02798354,16 C0.90177668,16 0,15.2035556 0,14.2216296 L0,2.96296296 L0,2.96296296 Z M0.675994513,3.55555556 L0.675994513,14.2275556 C0.675994513,14.8788148 1.27965761,15.4074074 2.02257558,15.4074074 L9.46933114,15.4074074 C10.2129251,15.4074074 10.8159122,14.8752593 10.8159122,14.2275556 L10.8159122,3.55555556 L0.675994513,3.55555556 L0.675994513,3.55555556 Z M2.70397805,4.74074074 L2.70397805,14.2222222 L3.37997257,14.2222222 L3.37997257,4.74074074 L2.70397805,4.74074074 L2.70397805,4.74074074 Z M5.4079561,4.74074074 L5.4079561,14.2222222 L6.08395062,14.2222222 L6.08395062,4.74074074 L5.4079561,4.74074074 L5.4079561,4.74074074 Z M8.11193416,4.74074074 L8.11193416,14.2222222 L8.78792867,14.2222222 L8.78792867,4.74074074 L8.11193416,4.74074074 L8.11193416,4.74074074 Z M4.05799506,0.592592593 C3.6834941,0.592592593 3.37997257,0.855703704 3.37997257,1.18518519 L3.37997257,1.77777778 L8.11193416,1.77777778 L8.11193416,1.18518519 C8.11193416,0.858074074 7.81584856,0.592592593 7.43391166,0.592592593 L4.05799506,0.592592593 L4.05799506,0.592592593 Z" id="Shape"></path>
                        </g>
                    </g>
                </g>
            </g>
        </g>
    </g>
</svg>