<?xml version="1.0" encoding="UTF-8"?>
<svg width="15px" height="14px" viewBox="0 0 15 14" version="1.1" xmlns="http://www.w3.org/2000/svg" xmlns:xlink="http://www.w3.org/1999/xlink">
    <!-- Generator: Sketch 43.1 (39012) - http://www.bohemiancoding.com/sketch -->
    <title>下载(1)</title>
    <desc>Created with Sketch.</desc>
    <defs></defs>
    <g id="本地分析引擎-仪表盘" stroke="none" stroke-width="1" fill="none" fill-rule="evenodd">
        <g id="仪表盘--不查看数据-copy-2" transform="translate(-1149.000000, -298.000000)" stroke="#FFFFFF" stroke-width="0.4" fill="#9B9B9B" fill-rule="nonzero">
            <g id="线索统计" transform="translate(154.000000, 178.000000)">
                <g id="Group-9-Copy-3" transform="translate(557.000000, 0.000000)">
                    <g id="Group-20-Copy" transform="translate(419.000000, 47.000000)">
                        <g id="下载(1)" transform="translate(20.000000, 74.000000)">
                            <path d="M6.07433196,9.40372063 C6.25390733,9.57996009 6.54539198,9.57996009 6.72496735,9.40372063 L10.9807734,5.29785215 C11.1603488,5.1216127 11.1805185,4.8138322 10.9807734,4.65994195 C10.4875918,4.27936689 10.0822459,4.65994195 10.0822459,4.65994195 L6.68462796,7.92356463 C6.52717419,8.07809342 6.27212512,8.07809342 6.11532199,7.92356463 L2.95974037,4.69697778 C2.95974037,4.69697778 2.59733646,4.28766803 2.06056227,4.69761633 C1.86016657,4.85022948 1.8809869,5.15928707 2.06056227,5.33552653 L6.07433196,9.40372063 Z" id="Shape"></path>
                            <path d="M6.4978956,6.77226122 C6.84078045,6.77226122 7.11795112,6.45219974 7.11795112,6.05793196 L7.11795112,0.715078828 C7.11795112,0.320061488 6.84012981,-4.4408921e-16 6.4978956,-4.4408921e-16 C6.15501075,-4.4408921e-16 5.87718944,0.320061488 5.87718944,0.715078828 L5.87718944,6.05793196 C5.87718944,6.45219974 6.15501075,6.77226122 6.4978956,6.77226122 Z" id="Shape"></path>
                            <path d="M12.9951406,9.20768617 C12.9951406,9.05635011 12.9333302,8.91970068 12.8324817,8.82072562 C12.7316332,8.72175057 12.5923973,8.66108844 12.4381967,8.66108844 C12.1304461,8.66108844 11.8819034,8.90565261 11.8819034,9.20768617 L11.8819034,10.9068644 L1.11388778,10.9075029 L1.11388778,9.20768617 C1.11388778,8.90565261 0.864694428,8.66108844 0.556943891,8.66108844 C0.249193353,8.66108844 0,8.90501406 0,9.20768617 L0.000650635386,11.452185 C0.000650635386,11.4528236 0,11.4528236 0,11.4528236 C0,11.6041596 0.0624609971,11.7408091 0.163309482,11.8397841 L0.163309482,11.8397841 C0.199745064,11.8755429 0.260254154,11.8729887 0.305798631,11.8972535 C0.385826784,11.9406748 0.458697947,11.9994213 0.556943891,11.9994213 L0.557594526,11.9994213 L12.4388473,11.9994213 L12.4388473,11.9994213 C12.7465978,11.9994213 12.9957912,11.7548571 12.9957912,11.4528236 L12.9957912,11.4528236 L12.9951406,9.20768617 Z" id="Shape"></path>
                        </g>
                    </g>
                </g>
            </g>
        </g>
    </g>
</svg>