<?xml version="1.0" encoding="UTF-8"?>
<svg width="29px" height="29px" viewBox="0 0 29 29" version="1.1" xmlns="http://www.w3.org/2000/svg" xmlns:xlink="http://www.w3.org/1999/xlink">
    <!-- Generator: Sketch 42 (36781) - http://www.bohemiancoding.com/sketch -->
    <title>刷新@3x</title>
    <desc>Created with Sketch.</desc>
    <defs>
        <circle id="path-1" cx="14.5" cy="14.5" r="14.5"></circle>
        <mask id="mask-2" maskContentUnits="userSpaceOnUse" maskUnits="objectBoundingBox" x="0" y="0" width="29" height="29" fill="white">
            <use xlink:href="#path-1"></use>
        </mask>
    </defs>
    <g id="新版本" stroke="none" stroke-width="1" fill="none" fill-rule="evenodd">
        <g id="仪表盘-我创建的-copy-3" transform="translate(-1238.000000, -202.000000)">
            <g id="刷新" transform="translate(1238.000000, 202.000000)">
                <use id="Oval-3" stroke="#D8D8D8" mask="url(#mask-2)" xlink:href="#path-1"></use>
                <g id="编辑" fill-rule="evenodd" transform="translate(8.000000, 8.000000)" fill="#979797">
                    <path d="M6.5,0 C2.9615625,0 0.082875,2.8283125 0.001625,6.34725 C0.076375,3.2768125 2.4115,0.8125 5.28125,0.8125 C8.198125,0.8125 10.5625,3.358875 10.5625,6.5 C10.5625,7.17275 11.1085,7.71875 11.78125,7.71875 C12.454,7.71875 13,7.17275 13,6.5 C13,2.910375 10.089625,0 6.5,0 L6.5,0 Z M6.5,13 C10.0384375,13 12.917125,10.1716875 12.998375,6.65275 C12.923625,9.7231875 10.5885,12.1875 7.71875,12.1875 C4.801875,12.1875 2.4375,9.641125 2.4375,6.5 C2.4375,5.82725 1.8915,5.28125 1.21875,5.28125 C0.546,5.28125 0,5.82725 0,6.5 C0,10.089625 2.910375,13 6.5,13 L6.5,13 Z" id="刷新"></path>
                </g>
            </g>
        </g>
    </g>
</svg>