<?xml version="1.0" encoding="UTF-8"?>
<svg width="17px" height="17px" viewBox="0 0 17 17" version="1.1" xmlns="http://www.w3.org/2000/svg" xmlns:xlink="http://www.w3.org/1999/xlink">
    <!-- Generator: Sketch 46.2 (44496) - http://www.bohemiancoding.com/sketch -->
    <title>复制到</title>
    <desc>Created with Sketch.</desc>
    <defs></defs>
    <g id="仪表盘" stroke="none" stroke-width="1" fill="none" fill-rule="evenodd">
        <g id="仪表盘-我创建的普通用户-copy" transform="translate(-1150.000000, -360.000000)" stroke="#FFFFFF" fill-rule="nonzero" fill="#9B9B9B">
            <g id="线索统计" transform="translate(453.000000, 241.000000)">
                <g id="Group-9">
                    <g id="Group-20" transform="translate(679.000000, 48.000000)">
                        <g id="复制到" transform="translate(19.000000, 72.000000)">
                            <path d="M11.105772,1.875 L2.01922799,1.875 C0.90409743,1.875 0,2.77911549 0,3.89422799 L0,12.980772 C0,14.0958845 0.904115492,15 2.01922799,15 L11.105772,15 C12.2208845,15 13.125,14.0958845 13.125,12.980772 L13.125,3.89422799 C13.125,2.77909743 12.2208845,1.875 11.105772,1.875 Z M12.1875,13.0397744 C12.1875,13.6040683 11.7290683,14.0625 11.1647744,14.0625 L1.96022561,14.0625 C1.39642566,14.0625 0.9375,13.6040683 0.9375,13.0397744 L0.9375,3.83522561 C0.9375,3.27091336 1.39642566,2.8125 1.96022561,2.8125 L11.1647744,2.8125 C11.7290683,2.8125 12.1875,3.27091336 12.1875,3.83522561 L12.1875,13.0397744 Z" id="Shape" stroke-width="0.3"></path>
                            <path d="M2.8125,6.42856937 L8.4375,6.42856937 L8.4375,5.625 L2.8125,5.625 L2.8125,6.42856937 Z M2.8125,8.03569375 L8.4375,8.03569375 L8.4375,7.23212437 L2.8125,7.23212437 L2.8125,8.03569375 Z M2.8125,9.64284687 L8.4375,9.64284687 L8.4375,8.83929188 L2.8125,8.83929188 L2.8125,9.64286125 L2.8125,9.64284687 Z M2.8125,11.25 L6.0267775,11.25 L6.0267775,10.4464306 L2.8125,10.4464306 L2.8125,11.25 Z" id="Shape" stroke-width="0.1"></path>
                            <path d="M13.1250026,0 L4.68749742,0 C3.65203581,0 2.8125,0.839534658 2.8125,1.87499484 L3.74999871,1.87499484 C3.74999871,1.35772597 4.17068067,0.93749742 4.68749742,0.93749742 L13.1250026,0.93749742 C13.6422889,0.93749742 14.0625013,1.35772597 14.0625013,1.87499484 L14.0625013,10.3124884 C14.0625013,10.829774 13.6422889,11.2500026 13.1250026,11.2500026 L13.1250026,12.1875 C14.160481,12.1875 15,11.3479653 15,10.3124884 L15,1.87499484 C15,0.839534658 14.1604642,0 13.1250026,0 L13.1250026,0 Z" id="Shape" stroke-width="0.3"></path>
                        </g>
                    </g>
                </g>
            </g>
        </g>
    </g>
</svg>