<?xml version="1.0" encoding="UTF-8"?>
<svg width="16px" height="15px" viewBox="0 0 16 15" version="1.1" xmlns="http://www.w3.org/2000/svg" xmlns:xlink="http://www.w3.org/1999/xlink">
    <!-- Generator: Sketch 46.2 (44496) - http://www.bohemiancoding.com/sketch -->
    <title>Group 8</title>
    <desc>Created with Sketch.</desc>
    <defs></defs>
    <g id="仪表盘" stroke="none" stroke-width="1" fill="none" fill-rule="evenodd">
        <g id="仪表盘-更多按钮" transform="translate(-1150.000000, -335.000000)">
            <g id="Group-8" transform="translate(1150.000000, 334.000000)">
                <rect id="Rectangle-5" fill="#FFFFFF" opacity="0" x="0" y="0" width="17" height="17"></rect>
                <g id="过滤" transform="translate(1.000000, 2.000000)" stroke="#FFFFFF" stroke-width="0.4" fill="#9B9B9B" fill-rule="nonzero">
                    <path d="M13.5028193,11.043348 L10.0020884,11.043348 C9.70202574,11.043348 9.50198397,11.2423272 9.50198397,11.5407961 C9.50198397,11.8392649 9.70202574,12.0382442 10.0020884,12.0382442 L13.5028193,12.0382442 C13.802882,12.0382442 14.0029237,11.8392649 14.0029237,11.5407961 C14.0029237,11.3418168 13.802882,11.043348 13.5028193,11.043348 Z M13.5028193,8.25763856 L10.0020884,8.25763856 C9.70202574,8.25763856 9.50198397,8.4566178 9.50198397,8.75508667 C9.50198397,9.05355553 9.70202574,9.25253477 10.0020884,9.25253477 L13.5028193,9.25253477 C13.802882,9.25253477 14.0029237,9.05355553 14.0029237,8.75508667 C14.0029237,8.55610743 13.802882,8.25763856 13.5028193,8.25763856 Z M13.5028193,5.57141879 L10.0020884,5.57141879 C9.70202574,5.57141879 9.50198397,5.77039803 9.50198397,6.06886689 C9.50198397,6.36733576 9.70202574,6.566315 10.0020884,6.566315 L13.5028193,6.566315 C13.802882,6.566315 14.0029237,6.36733576 14.0029237,6.06886689 C14.0029237,5.77039803 13.802882,5.57141879 13.5028193,5.57141879 Z M7.80162894,13.5305885 C7.50156629,13.5305885 7.30152452,13.3316092 7.30152452,13.0331404 L7.30152452,5.27294992 C7.30152452,5.1734603 7.30152452,4.97448106 7.40154541,4.87499144 L10.8022555,1.09438583 L1.70035503,1.09438583 L5.10106508,4.87499144 C5.20108596,4.97448106 5.20108596,5.07397068 5.20108596,5.27294992 L5.20108596,9.94896212 L6.00125303,10.6453895 C6.2012948,10.8443687 6.30131569,11.1428376 6.10127392,11.3418168 C5.90123215,11.5407961 5.6011695,11.6402857 5.40112773,11.4413064 L4.40091889,10.6453895 C4.30089801,10.5458998 4.20087712,10.4464102 4.20087712,10.247431 L4.20087712,5.47192917 L0.200041768,0.895406591 C0,0.696427349 0,0.497448106 0,0.298468864 C0.100020884,0.0994896212 0.300062652,0 0.500104419,0 L12.0025061,0 C12.2025478,0 12.4025896,0.0994896212 12.5026105,0.298468864 C12.6026314,0.497448106 12.5026105,0.696427349 12.4025896,0.895406591 L8.40175425,5.47192917 L8.40175425,13.0331404 C8.40175425,13.3316092 8.1016916,13.5305885 7.80162894,13.5305885 Z" id="Shape"></path>
                </g>
            </g>
        </g>
    </g>
</svg>