<?xml version="1.0" encoding="UTF-8"?>
<svg width="16px" height="17px" viewBox="0 0 16 17" version="1.1" xmlns="http://www.w3.org/2000/svg" xmlns:xlink="http://www.w3.org/1999/xlink">
    <!-- Generator: Sketch 46.2 (44496) - http://www.bohemiancoding.com/sketch -->
    <title>移动到</title>
    <desc>Created with Sketch.</desc>
    <defs></defs>
    <g id="仪表盘" stroke="none" stroke-width="1" fill="none" fill-rule="evenodd">
        <g id="仪表盘-我创建的普通用户-copy" transform="translate(-1151.000000, -387.000000)" stroke="#FFFFFF" fill-rule="nonzero" fill="#9B9B9B">
            <g id="线索统计" transform="translate(453.000000, 241.000000)">
                <g id="Group-9">
                    <g id="Group-20" transform="translate(679.000000, 48.000000)">
                        <g id="移动到" transform="translate(20.000000, 99.000000)">
                            <path d="M2.74457551,2.8659205 L10.0639351,2.8659205 L10.0639351,3.81575503 L2.74457551,3.81575503 L2.74457551,2.8659205 Z M2.7212877,4.773798 L10.0394829,4.773798 L10.0394829,5.72363254 L2.72012331,5.72363254 L2.72012331,4.773798 L2.7212877,4.773798 Z M2.7212877,6.67229444 L10.0394829,6.67229444 L10.0394829,7.62212898 L2.72012331,7.62212898 L2.72012331,6.67229444 L2.7212877,6.67229444 Z M2.7212877,8.57079087 L6.37980311,8.57079087 L6.37980311,9.5206254 L2.72012331,9.5206254 L2.72012331,8.57079087 L2.7212877,8.57079087 Z M11.8920284,0.00234526358 L0.915317807,0.00234526358 C0.668873998,0.00604935889 0.433988274,0.108208789 0.262346959,0.286343493 C0.0907056453,0.464478197 -0.003627017,0.703991865 0.000106763584,0.952179799 L0.000106763584,14.2416548 C0.000106763584,14.7658228 0.409972268,15.1914894 0.915317807,15.1914894 L7.31946636,15.1914894 L7.31946636,14.2416548 L0.915317807,14.2416548 L0.915317807,0.951007167 L11.8931928,0.951007167 L11.8931928,8.54616552 L12.8084039,8.54616552 L12.8084039,0.949834535 C12.8121377,0.701646602 12.717805,0.462132933 12.5461637,0.283998229 C12.3745224,0.105863526 12.1396366,0.00370409531 11.8931928,0 L11.8920284,0.00234526358 Z" id="Shape" stroke-width="0.3"></path>
                            <path d="M11.3200516,15.191489 C11.181631,15.1916582 11.0489896,15.1354862 10.9521264,15.0356773 C10.7491755,14.8273732 10.7476311,14.4937734 10.9486445,14.2835639 L12.6373864,12.7957382 L6.18186578,12.7957382 C5.94045113,12.7957382 5.65957447,12.6797581 5.65957447,12.3540766 C5.65957447,12.0412818 5.92884466,11.9299877 6.18186578,11.9299877 L12.6373864,11.9299877 L10.9486445,10.4421621 C10.7474905,10.2315562 10.7490342,9.89757928 10.9521264,9.68887715 C11.0487228,9.58853295 11.1814376,9.53191489 11.3200516,9.53191489 C11.4586657,9.53191489 11.5913805,9.58853295 11.6879769,9.68887715 L13.7156278,11.553931 C13.8991525,11.7427166 14.0013565,11.9970402 13.9999864,12.2615268 C14.0012473,12.5270204 13.8976634,12.7820813 13.7121458,12.9702942 L11.6879769,15.0356773 C11.5910385,15.1353744 11.4584459,15.1915257 11.3200516,15.191489 L11.3200516,15.191489 Z" id="Shape" stroke-width="0.2"></path>
                        </g>
                    </g>
                </g>
            </g>
        </g>
    </g>
</svg>